<svg xmlns="http://www.w3.org/2000/svg" viewBox="0 0 660 762" preserveAspectRatio="xMidYMid meet">
<title>DraWe 운영 아키텍처 — 요청 · 배포 · 관측</title>
<defs><marker id="arw-drawe" viewBox="0 0 10 10" refX="9" refY="5" markerWidth="5.5" markerHeight="5.5" orient="auto-start-reverse"><path d="M 0 0 L 10 5 L 0 10 z" fill="var(--secondary)"/></marker></defs>
<text x="24" y="30" font-size="13" text-anchor="start" fill="var(--fn-accent)" font-weight="700">요청</text>
<text x="60" y="30" font-size="11" text-anchor="start" fill="var(--fn-diagram-muted)">사용자 → 서비스 → 데이터</text>
<rect x="24" y="48" width="86" height="38" rx="7" fill="var(--entry)" stroke="var(--fn-border)" stroke-width="1"/>
<text x="67.0" y="71.0" font-size="12.5" text-anchor="middle" fill="var(--primary)" font-weight="600">User</text>
<line x1="110" y1="67" x2="130" y2="67" stroke="var(--secondary)" stroke-width="1.3" fill="none" marker-end="url(#arw-drawe)"/>
<rect x="130" y="41" width="168" height="52" rx="7" fill="var(--entry)" stroke="var(--fn-border)" stroke-width="1"/>
<text x="214.0" y="65.0" font-size="12.5" text-anchor="middle" fill="var(--primary)" font-weight="600">Cloudflare</text>
<text x="214.0" y="80.0" font-size="10" text-anchor="middle" fill="var(--secondary)">Pages · DNS · TLS · WAF</text>
<line x1="298" y1="67" x2="318" y2="67" stroke="var(--secondary)" stroke-width="1.3" fill="none" marker-end="url(#arw-drawe)"/>
<rect x="318" y="41" width="150" height="52" rx="7" fill="var(--entry)" stroke="var(--fn-border)" stroke-width="1"/>
<text x="393.0" y="65.0" font-size="12.5" text-anchor="middle" fill="var(--primary)" font-weight="600">ALB Ingress</text>
<text x="393.0" y="80.0" font-size="10" text-anchor="middle" fill="var(--secondary)">단일 ALB 공유</text>
<path d="M 393 93 L 393 118 " stroke="var(--secondary)" stroke-width="1.3" fill="none" marker-end="url(#arw-drawe)"/>
<rect x="24" y="124" width="612" height="128" rx="10" fill="var(--fn-accent-light)" stroke="var(--fn-accent)" stroke-width="1.2" fill-opacity="0.42"/>
<text x="38" y="145" font-size="11" text-anchor="start" fill="var(--fn-accent)" font-weight="700">EKS · Karpenter · Graviton ARM64</text>
<rect x="38" y="156" width="190" height="62" rx="7" fill="var(--entry)" stroke="var(--fn-border)" stroke-width="1"/>
<text x="133.0" y="185.0" font-size="12.5" text-anchor="middle" fill="var(--primary)" font-weight="600">backend</text>
<text x="133.0" y="200.0" font-size="10" text-anchor="middle" fill="var(--secondary)">Spring Boot</text>
<rect x="236" y="156" width="190" height="62" rx="7" fill="var(--entry)" stroke="var(--fn-border)" stroke-width="1"/>
<text x="331.0" y="185.0" font-size="12.5" text-anchor="middle" fill="var(--primary)" font-weight="600">fastapi · embed</text>
<text x="331.0" y="200.0" font-size="10" text-anchor="middle" fill="var(--secondary)">CLIP 임베딩</text>
<rect x="434" y="156" width="188" height="62" rx="7" fill="var(--entry)" stroke="var(--fn-border)" stroke-width="1"/>
<text x="528.0" y="185.0" font-size="12.5" text-anchor="middle" fill="var(--primary)" font-weight="600">fastapi · guide</text>
<text x="528.0" y="200.0" font-size="10" text-anchor="middle" fill="var(--secondary)">ClusterIP 내부전용</text>
<path d="M 330 252 L 330 277 " stroke="var(--secondary)" stroke-width="1.3" fill="none" marker-end="url(#arw-drawe)"/>
<rect x="24" y="282" width="612" height="134" rx="10" fill="none" stroke="var(--fn-border-hover)" stroke-width="1.2" stroke-dasharray="5 3"/>
<text x="36" y="300" font-size="10.5" text-anchor="start" fill="var(--secondary)" font-weight="700">데이터 · 벡터 검색 · 외부 AI</text>
<rect x="38" y="312" width="137" height="42" rx="6" fill="var(--fn-diagram-surface)" stroke="var(--fn-border)" stroke-width="1"/>
<text x="106.5" y="331.0" font-size="12.5" text-anchor="middle" fill="var(--primary)" font-weight="600">RDS</text>
<text x="106.5" y="346.0" font-size="10" text-anchor="middle" fill="var(--secondary)">MySQL</text>
<rect x="187" y="312" width="137" height="42" rx="6" fill="var(--fn-diagram-surface)" stroke="var(--fn-border)" stroke-width="1"/>
<text x="255.5" y="331.0" font-size="12.5" text-anchor="middle" fill="var(--primary)" font-weight="600">ElastiCache</text>
<text x="255.5" y="346.0" font-size="10" text-anchor="middle" fill="var(--secondary)">Valkey</text>
<rect x="336" y="312" width="137" height="42" rx="6" fill="var(--fn-diagram-surface)" stroke="var(--fn-border)" stroke-width="1"/>
<text x="404.5" y="331.0" font-size="12.5" text-anchor="middle" fill="var(--primary)" font-weight="600">S3</text>
<text x="404.5" y="346.0" font-size="10" text-anchor="middle" fill="var(--secondary)">이미지 · 로그</text>
<rect x="485" y="312" width="137" height="42" rx="6" fill="var(--fn-diagram-surface)" stroke="var(--fn-border)" stroke-width="1"/>
<text x="553.5" y="331.0" font-size="12.5" text-anchor="middle" fill="var(--primary)" font-weight="600">Qdrant</text>
<text x="553.5" y="346.0" font-size="10" text-anchor="middle" fill="var(--secondary)">가이드 레퍼런스</text>
<rect x="38" y="364" width="137" height="42" rx="6" fill="var(--fn-diagram-surface)" stroke="var(--fn-border)" stroke-width="1"/>
<text x="106.5" y="383.0" font-size="12.5" text-anchor="middle" fill="var(--primary)" font-weight="600">Pinecone</text>
<text x="106.5" y="398.0" font-size="10" text-anchor="middle" fill="var(--secondary)">보드 검색</text>
<rect x="187" y="364" width="137" height="42" rx="6" fill="var(--fn-diagram-surface)" stroke="var(--fn-border)" stroke-width="1"/>
<text x="255.5" y="383.0" font-size="12.5" text-anchor="middle" fill="var(--primary)" font-weight="600">AWS Bedrock</text>
<text x="255.5" y="398.0" font-size="10" text-anchor="middle" fill="var(--secondary)">VLM 관찰 · 이미지 생성</text>
<rect x="336" y="364" width="137" height="42" rx="6" fill="var(--fn-diagram-surface)" stroke="var(--fn-border)" stroke-width="1"/>
<text x="404.5" y="383.0" font-size="12.5" text-anchor="middle" fill="var(--primary)" font-weight="600">Grok</text>
<text x="404.5" y="398.0" font-size="10" text-anchor="middle" fill="var(--secondary)">코칭 문장 생성</text>
<text x="553" y="381" font-size="9.5" text-anchor="middle" fill="var(--fn-diagram-muted)">벡터 DB 를 용도별로</text>
<text x="553" y="395" font-size="9.5" text-anchor="middle" fill="var(--fn-diagram-muted)">가이드 / 보드 분리</text>
<line x1="24" y1="448" x2="636" y2="448" stroke="var(--fn-border)" stroke-width="1" fill="none"/>
<text x="24" y="482" font-size="13" text-anchor="start" fill="var(--fn-accent)" font-weight="700">배포</text>
<text x="60" y="482" font-size="11" text-anchor="start" fill="var(--fn-diagram-muted)">git = 단일 출처</text>
<rect x="24" y="500" width="84" height="38" rx="7" fill="var(--entry)" stroke="var(--fn-border)" stroke-width="1"/>
<text x="66.0" y="523.0" font-size="12.5" text-anchor="middle" fill="var(--primary)" font-weight="600">git push</text>
<line x1="108" y1="519" x2="126" y2="519" stroke="var(--secondary)" stroke-width="1.3" fill="none" marker-end="url(#arw-drawe)"/>
<rect x="126" y="493" width="152" height="52" rx="7" fill="var(--entry)" stroke="var(--fn-border)" stroke-width="1"/>
<text x="202.0" y="517.0" font-size="12.5" text-anchor="middle" fill="var(--primary)" font-weight="600">GitHub Actions</text>
<text x="202.0" y="532.0" font-size="10" text-anchor="middle" fill="var(--secondary)">OIDC · ARM64 빌드</text>
<line x1="278" y1="519" x2="296" y2="519" stroke="var(--secondary)" stroke-width="1.3" fill="none" marker-end="url(#arw-drawe)"/>
<rect x="296" y="500" width="62" height="38" rx="7" fill="var(--entry)" stroke="var(--fn-border)" stroke-width="1"/>
<text x="327.0" y="523.0" font-size="12.5" text-anchor="middle" fill="var(--primary)" font-weight="600">ECR</text>
<line x1="358" y1="519" x2="376" y2="519" stroke="var(--secondary)" stroke-width="1.3" fill="none" marker-end="url(#arw-drawe)"/>
<rect x="376" y="493" width="140" height="52" rx="7" fill="var(--entry)" stroke="var(--fn-border)" stroke-width="1"/>
<text x="446.0" y="517.0" font-size="12.5" text-anchor="middle" fill="var(--primary)" font-weight="600">overlay bump</text>
<text x="446.0" y="532.0" font-size="10" text-anchor="middle" fill="var(--secondary)">kustomize newTag</text>
<line x1="516" y1="519" x2="534" y2="519" stroke="var(--secondary)" stroke-width="1.3" fill="none" marker-end="url(#arw-drawe)"/>
<rect x="534" y="493" width="102" height="52" rx="7" fill="var(--entry)" stroke="var(--fn-border)" stroke-width="1"/>
<text x="585.0" y="517.0" font-size="12.5" text-anchor="middle" fill="var(--primary)" font-weight="600">ArgoCD</text>
<text x="585.0" y="532.0" font-size="10" text-anchor="middle" fill="var(--secondary)">auto-sync</text>
<path d="M 585 493 L 585 468 L 648 468 L 648 190 L 641 190 " stroke="var(--secondary)" stroke-width="1.3" fill="none" stroke-dasharray="4 4" marker-end="url(#arw-drawe)"/>
<line x1="24" y1="582" x2="636" y2="582" stroke="var(--fn-border)" stroke-width="1" fill="none"/>
<text x="24" y="616" font-size="13" text-anchor="start" fill="var(--fn-accent)" font-weight="700">관측</text>
<text x="60" y="616" font-size="11" text-anchor="start" fill="var(--fn-diagram-muted)">앱은 OTLP만 안다</text>
<rect x="24" y="634" width="100" height="38" rx="7" fill="var(--entry)" stroke="var(--fn-border)" stroke-width="1"/>
<text x="74.0" y="657.0" font-size="12.5" text-anchor="middle" fill="var(--primary)" font-weight="600">앱 (OTLP)</text>
<line x1="124" y1="653" x2="142" y2="653" stroke="var(--secondary)" stroke-width="1.3" fill="none" marker-end="url(#arw-drawe)"/>
<rect x="142" y="627" width="160" height="52" rx="7" fill="var(--entry)" stroke="var(--fn-border)" stroke-width="1"/>
<text x="222.0" y="651.0" font-size="12.5" text-anchor="middle" fill="var(--primary)" font-weight="600">Alloy DaemonSet</text>
<text x="222.0" y="666.0" font-size="10" text-anchor="middle" fill="var(--secondary)">PII redaction</text>
<line x1="302" y1="653" x2="320" y2="653" stroke="var(--secondary)" stroke-width="1.3" fill="none" marker-end="url(#arw-drawe)"/>
<rect x="320" y="627" width="172" height="52" rx="7" fill="var(--entry)" stroke="var(--fn-border)" stroke-width="1"/>
<text x="406.0" y="651.0" font-size="12.5" text-anchor="middle" fill="var(--primary)" font-weight="600">Loki · Tempo · AMP</text>
<text x="406.0" y="666.0" font-size="10" text-anchor="middle" fill="var(--secondary)">prod 직접 운영</text>
<line x1="492" y1="653" x2="510" y2="653" stroke="var(--secondary)" stroke-width="1.3" fill="none" marker-end="url(#arw-drawe)"/>
<rect x="510" y="634" width="126" height="38" rx="7" fill="var(--entry)" stroke="var(--fn-border)" stroke-width="1"/>
<text x="573.0" y="657.0" font-size="12.5" text-anchor="middle" fill="var(--primary)" font-weight="600">Grafana</text>
<rect x="142" y="696" width="160" height="44" rx="7" fill="none" stroke="var(--fn-border)" stroke-width="1" stroke-dasharray="4 4"/>
<text x="222.0" y="716.0" font-size="12.5" text-anchor="middle" fill="var(--primary)" font-weight="600">dev: Grafana Cloud</text>
<text x="222.0" y="731.0" font-size="10" text-anchor="middle" fill="var(--secondary)">비용을 눌러 SaaS로</text>
<path d="M 222 679 L 222 690 " stroke="var(--secondary)" stroke-width="1.3" fill="none" stroke-dasharray="3 3" marker-end="url(#arw-drawe)"/>
</svg>
